<svg role="img" viewBox="0 0 24 24" xmlns="http://www.w3.org/2000/svg"><title>Confluence</title><path fill="#0052CC" d="M.87 18.257c-.248.382-.53.875-.763 1.245a.764.764 0 0 0 .255 1.04l4.965 3.054a.764.764 0 0 0 1.058-.26c.199-.332.454-.763.733-1.221 1.967-3.247 3.945-2.853 7.508-1.146l4.957 2.394a.764.764 0 0 0 1.01-.393l2.36-5.164a.764.764 0 0 0-.36-1.046c-1.563-.73-4.251-1.996-6.422-3.02C9.081 10.204 2.966 10.776.87 18.257zm22.26-12.513c.248-.382.53-.875.763-1.245a.764.764 0 0 0-.254-1.04L18.674.405a.764.764 0 0 0-1.058.261c-.2.331-.455.762-.734 1.22-1.966 3.248-3.945 2.853-7.507 1.147L4.418.639a.764.764 0 0 0-1.01.393L1.05 6.196a.764.764 0 0 0 .36 1.046c1.562.73 4.252 1.996 6.42 3.02 7.103 3.538 13.217 2.965 15.3-4.518z"/></svg>
